<svg version="1.1" id="Layer_1" xmlns="http://www.w3.org/2000/svg" xmlns:xlink="http://www.w3.org/1999/xlink" x="0px" y="0px"
	 width="100%" viewBox="0 0 1024 656" enable-background="new 0 0 1024 656" xml:space="preserve">
<path fill="#000000" opacity="1.000000" stroke="none" 
	d="
M581.000000,568.982422 
	C522.504150,568.982239 464.508240,569.015991 406.512451,568.952820 
	C395.471954,568.940735 384.524719,567.847046 374.169952,563.631897 
	C351.967773,554.593933 341.526154,536.815125 337.876099,514.167603 
	C337.216644,510.075897 336.919128,505.881561 336.917938,501.734467 
	C336.879517,369.577332 336.895355,237.420212 336.935364,105.263084 
	C336.935974,103.178734 336.302612,100.929237 337.832611,99.034637 
	C339.917938,98.309395 341.396484,99.675652 342.974457,100.451912 
	C369.283691,113.394028 395.585114,126.352150 421.859100,139.365555 
	C424.343872,140.596252 426.873199,140.964096 429.580933,140.962479 
	C489.243317,140.926834 548.905701,140.902252 608.568115,140.938782 
	C612.180420,140.940994 615.328430,140.155350 618.486877,138.287689 
	C639.712036,125.736954 661.027832,113.339294 682.321655,100.904808 
	C683.733459,100.080376 685.050293,98.945770 686.937073,99.170677 
	C688.743225,100.476082 688.165527,102.465698 688.165588,104.192657 
	C688.173767,231.850113 688.275452,359.507782 688.049622,487.164886 
	C687.981384,525.734924 664.540466,553.955566 625.119080,565.411682 
	C610.689453,569.605042 596.119385,568.830322 581.000000,568.982422 
M378.309265,249.851013 
	C377.686615,260.260681 378.665253,270.344116 382.950470,280.083710 
	C392.768311,302.397980 414.541779,316.273773 439.385925,315.660950 
	C462.865997,315.081757 484.412994,299.694031 492.643066,277.609711 
	C493.224396,276.049866 494.241699,274.498749 493.366547,272.501190 
	C478.482697,286.576538 464.316986,288.020691 452.708313,276.882874 
	C442.807770,267.383911 442.039215,251.434631 450.998627,241.115631 
	C455.849487,235.528641 462.156097,232.503464 469.375977,232.224411 
	C480.075592,231.810883 488.316803,236.804642 494.504456,246.504852 
	C495.377716,224.299683 469.072357,200.035706 442.686768,197.483078 
	C411.443939,194.460541 383.307068,216.960831 378.309265,249.851013 
M588.576111,197.349197 
	C554.859375,197.398712 531.878113,226.637589 531.725098,247.612518 
	C536.510864,239.582321 542.370911,234.272217 550.959106,232.675644 
	C559.803467,231.031509 567.551636,233.459885 574.039673,239.359650 
	C584.094238,248.502518 584.582642,265.603973 575.389221,275.472870 
	C563.386902,288.357025 549.965576,287.178345 532.755859,271.728638 
	C532.955566,292.669983 562.709778,315.756439 589.421936,315.696167 
	C621.037903,315.624817 648.457275,289.181152 648.659302,258.566772 
	C648.884705,224.422485 623.191284,197.835098 588.576111,197.349197 
M520.370239,323.847626 
	C511.425598,323.815155 502.396240,322.378876 492.815948,324.632782 
	C499.460022,338.563995 504.817749,351.893951 512.524414,365.648438 
	C520.017700,351.614746 526.148621,338.543976 531.730286,325.030334 
	C527.834473,323.222961 524.530701,323.483337 520.370239,323.847626 
z"/>
</svg>